<svg width="287" height="27" viewBox="0 0 287 27" fill="none" xmlns="http://www.w3.org/2000/svg">
<path d="M78.7274 22.6526L79.6109 25.9842L79.1899 26.2C78.2024 26.6789 77.2409 27 75.7596 27C72.5215 27 70.5152 24.9789 70.5152 21.7263L70.51 11.9368H67.1836V8.57368H70.51V3.74737L74.5017 2.66316V8.57368H78.717V11.9368H74.5017L74.5069 21.2105C74.5069 22.3947 75.2866 23.2105 76.4924 23.2842C77.1629 23.3263 77.8282 23.1263 78.4155 22.8211L78.7274 22.6526ZM176.982 8.56842V26.8H180.974V8.56842H176.982ZM202.414 17.6842C202.414 22.9947 198.474 27 193.245 27C187.996 27 184.04 22.9947 184.04 17.6842C184.04 12.3737 187.996 8.36842 193.245 8.36842C198.474 8.36842 202.414 12.3737 202.414 17.6842ZM198.437 17.6842C198.437 14.4789 196.254 12.1526 193.245 12.1526C190.215 12.1526 188.016 14.4789 188.016 17.6842C188.016 20.8895 190.215 23.2158 193.245 23.2158C196.254 23.2158 198.437 20.8895 198.437 17.6842ZM150.194 17.2053C150.194 17.2053 150.558 22.8842 144.424 22.8842C138.291 22.8842 138.66 17.1737 138.66 17.1737V2.54211H134.445V17.0368C134.445 23.1 138.364 27 144.424 27C150.485 27 154.404 23.1 154.404 17.0684V2.54211H150.189V17.2053H150.194ZM178.978 0C177.304 0 175.948 1.37369 175.948 3.06842C175.948 3.84211 176.233 4.55263 176.701 5.08947H181.254C181.722 4.54737 182.008 3.84211 182.008 3.06842C182.008 1.37369 180.651 0 178.978 0ZM109.466 8.40526C108.265 8.56316 107.007 8.97368 105.885 9.88421V8.56842H101.893V26.8H105.885V15.7158C105.885 15.3421 105.947 14.9737 106.087 14.6263C106.43 13.7947 107.09 12.9211 108.057 12.5C108.707 12.2158 109.325 12.1211 109.855 12.1211C110.432 12.1211 111.28 12.2158 111.872 12.5263V8.63158C111.867 8.63158 110.666 8.24737 109.466 8.40526ZM28.5814 2.54737L24.0179 19.8L18.5397 2.54737H14.2465L8.76827 19.8L4.19962 2.54211H0L6.42418 26.8H10.6238L16.3983 8.81053L22.1676 26.8H26.3672L32.7862 2.54737H28.5814ZM41.4869 27C36.2373 26.9842 32.308 23.0053 32.2976 17.6895C32.2976 16.5158 32.4951 15.3368 32.9005 14.2368C33.519 12.5737 34.6157 11.1053 36.045 10.0684C37.6043 8.94211 39.517 8.36842 41.4245 8.36842C43.9505 8.36842 45.9932 9.2579 47.4641 10.8526C48.4724 11.9526 49.1533 13.3474 49.5483 14.7842C49.9017 16.0737 49.9381 17.3684 49.9381 18.7H36.2374L36.3153 19.0947C36.8195 21.5421 38.8881 23.1842 41.4869 23.1895C43.7322 23.1842 45.2031 22.1158 45.9776 21.3263L48.7115 23.9053C47.0535 25.8263 44.3507 26.9947 41.4869 27ZM45.8372 15.7737C45.6605 14.6 45.1044 13.5158 44.1792 12.8211C43.1761 12.0684 42.1989 11.9263 41.1386 11.9263C39.6677 11.9263 38.332 12.6316 37.4068 13.7211C36.6687 14.5842 36.3361 15.7684 36.3361 15.7684H45.8372V15.7737ZM90.3751 27C85.1255 26.9842 81.1962 23.0053 81.1858 17.6895C81.1858 16.5158 81.3833 15.3368 81.7887 14.2368C82.4072 12.5737 83.5039 11.1053 84.9332 10.0684C86.4925 8.94211 88.4052 8.36842 90.3127 8.36842C92.8387 8.36842 94.8814 9.2579 96.3523 10.8526C97.3606 11.9526 98.0415 13.3474 98.4365 14.7842C98.7899 16.0737 98.8263 17.3684 98.8263 18.7H85.1255L85.2035 19.0947C85.7077 21.5421 87.7763 23.1842 90.3751 23.1895C92.6204 23.1842 94.0913 22.1158 94.8658 21.3263L97.5997 23.9053C95.9365 25.8263 93.2389 26.9947 90.3751 27ZM94.7202 15.7737C94.5435 14.6 93.9874 13.5158 93.0622 12.8211C92.0591 12.0684 91.0819 11.9263 90.0216 11.9263C88.5507 11.9263 87.215 12.6316 86.2898 13.7211C85.5517 14.5842 85.2191 15.7684 85.2191 15.7684H94.7202V15.7737ZM59.7563 15.6421C58.0203 15.2263 56.7937 14.7789 56.7729 13.7421C56.7469 12.3526 57.9527 11.9316 60.0421 11.9316C60.9049 11.9316 63.6441 11.9263 63.6441 11.9263V8.56316L60.0785 8.56842C56.9444 8.56842 53.0047 9.25263 53.0047 13.9895C53.041 16.1158 54.4704 17.7632 57.1315 18.6105C57.7448 18.8053 58.3685 18.9526 58.9715 19.1C60.8218 19.5474 62.4174 20 62.4382 21.3947C62.459 22.6579 60.7958 23.4158 59.4028 23.4421C56.9496 23.4421 55.328 22.0105 54.8186 21.4895L52.2146 23.9474C52.2146 23.9474 54.4912 26.9895 59.5588 26.9895C62.88 26.9895 66.274 24.8105 66.2168 21.2526C66.1545 17.7316 62.9164 16.4053 59.7563 15.6421ZM166.441 8.36842C165.028 8.36842 163.375 8.61053 161.93 9.67895V8.56842H157.938V26.8H161.93V15.7895C161.93 14.1632 163.219 12.2158 165.75 12.2158C167.969 12.2158 169.466 13.7421 169.466 16.0158V26.8H173.458V15.7526C173.458 11.2368 170.599 8.36842 166.441 8.36842ZM123.904 8.36842C122.491 8.36842 120.838 8.61053 119.393 9.67895V8.56842H115.401V26.8H119.393V15.7895C119.393 14.1632 120.682 12.2158 123.213 12.2158C125.433 12.2158 126.929 13.7421 126.929 16.0158V26.8H130.921V15.7526C130.921 11.2368 128.063 8.36842 123.904 8.36842ZM213.983 8.36842C212.57 8.36842 210.917 8.61053 209.472 9.67895V8.56842H205.48V26.8H209.472V15.7895C209.472 14.1632 210.761 12.2158 213.292 12.2158C215.511 12.2158 217.008 13.7421 217.008 16.0158V26.8H221V15.7526C221 11.2368 218.147 8.36842 213.983 8.36842Z" fill="#FFDD00"/>
<path d="M266.636 3L260.071 26.3909H255.307L250.333 10.8832L245.36 26.3909H240.628L234 3H239.162L243.219 17.802L247.962 3H252.736L257.563 17.9137L261.531 3H266.636ZM281.802 3V17.4061V17.4416C281.802 17.4619 281.906 19.4213 280.603 20.7665C279.755 21.6396 278.483 22.0812 276.818 22.0812C275.153 22.0812 273.881 21.6396 273.033 20.7665C271.729 19.4213 271.834 17.4619 271.834 17.4416V3H269.693L266.636 13.8934V17.2792C266.636 20.1624 267.599 22.6041 269.421 24.3452C271.242 26.0812 273.797 27 276.818 27C279.833 27 282.393 26.0812 284.215 24.3452C286.037 22.6091 287 20.1624 287 17.2792V3H281.802Z" fill="#FFE500"/>
<path d="M232.118 26L226 3H227.561L233.684 26H232.118ZM238 26L231.882 3H230.321L236.434 26H238Z" fill="#030303"/>
</svg>
