<svg width="645" height="144" viewBox="0 0 645 144" fill="none" xmlns="http://www.w3.org/2000/svg">
<g clip-path="url(#clip0_1912:38376)">
<path opacity="0.99" d="M644.14 0H0V143.07H644.14V0Z" fill="black"/>
<path d="M197.54 89.1201L199.24 95.4501L198.43 95.8601C196.53 96.7701 194.68 97.3801 191.83 97.3801C185.6 97.3801 181.74 93.5401 181.74 87.3601L181.73 68.7601H175.33V62.3701H181.73V53.2001L189.41 51.1401V62.3701H197.52V68.7601H189.41L189.42 86.3801C189.42 88.6301 190.92 90.1801 193.24 90.3201C194.53 90.4001 195.81 90.0201 196.94 89.4401L197.54 89.1201ZM386.58 62.3601V97.0001H394.26V62.3601H386.58ZM435.51 79.6801C435.51 89.7701 427.93 97.3801 417.87 97.3801C407.77 97.3801 400.16 89.7701 400.16 79.6801C400.16 69.5901 407.77 61.9801 417.87 61.9801C427.93 61.9801 435.51 69.5901 435.51 79.6801ZM427.86 79.6801C427.86 73.5901 423.66 69.1701 417.87 69.1701C412.04 69.1701 407.81 73.5901 407.81 79.6801C407.81 85.7701 412.04 90.1901 417.87 90.1901C423.66 90.1901 427.86 85.7701 427.86 79.6801ZM335.04 78.7701C335.04 78.7701 335.74 89.5601 323.94 89.5601C312.14 89.5601 312.85 78.7101 312.85 78.7101V50.9101H304.74V78.4501C304.74 89.9701 312.28 97.3801 323.94 97.3801C335.6 97.3801 343.14 89.9701 343.14 78.5101V50.9101H335.03V78.7701H335.04ZM390.42 46.0801C387.2 46.0801 384.59 48.6901 384.59 51.9101C384.59 53.3801 385.14 54.7301 386.04 55.7501H394.8C395.7 54.7201 396.25 53.3801 396.25 51.9101C396.25 48.6901 393.64 46.0801 390.42 46.0801ZM256.68 62.0501C254.37 62.3501 251.95 63.1301 249.79 64.8601V62.3601H242.11V97.0001H249.79V75.9401C249.79 75.2301 249.91 74.5301 250.18 73.8701C250.84 72.2901 252.11 70.6301 253.97 69.8301C255.22 69.2901 256.41 69.1101 257.43 69.1101C258.54 69.1101 260.17 69.2901 261.31 69.8801V62.4801C261.3 62.4801 258.99 61.7501 256.68 62.0501ZM101.06 50.9201L92.2798 83.7001L81.7398 50.9201H73.4798L62.9398 83.7001L54.1498 50.9101H46.0698L58.4298 97.0001H66.5098L77.6198 62.8201L88.7198 97.0001H96.7998L109.15 50.9201H101.06ZM125.89 97.3801C115.79 97.3501 108.23 89.7901 108.21 79.6901C108.21 77.4601 108.59 75.2201 109.37 73.1301C110.56 69.9701 112.67 67.1801 115.42 65.2101C118.42 63.0701 122.1 61.9801 125.77 61.9801C130.63 61.9801 134.56 63.6701 137.39 66.7001C139.33 68.7901 140.64 71.4401 141.4 74.1701C142.08 76.6201 142.15 79.0801 142.15 81.6101H115.79L115.94 82.3601C116.91 87.0101 120.89 90.1301 125.89 90.1401C130.21 90.1301 133.04 88.1001 134.53 86.6001L139.79 91.5001C136.6 95.1501 131.4 97.3701 125.89 97.3801ZM134.26 76.0501C133.92 73.8201 132.85 71.7601 131.07 70.4401C129.14 69.0101 127.26 68.7401 125.22 68.7401C122.39 68.7401 119.82 70.0801 118.04 72.1501C116.62 73.7901 115.98 76.0401 115.98 76.0401H134.26V76.0501ZM219.95 97.3801C209.85 97.3501 202.29 89.7901 202.27 79.6901C202.27 77.4601 202.65 75.2201 203.43 73.1301C204.62 69.9701 206.73 67.1801 209.48 65.2101C212.48 63.0701 216.16 61.9801 219.83 61.9801C224.69 61.9801 228.62 63.6701 231.45 66.7001C233.39 68.7901 234.7 71.4401 235.46 74.1701C236.14 76.6201 236.21 79.0801 236.21 81.6101H209.85L210 82.3601C210.97 87.0101 214.95 90.1301 219.95 90.1401C224.27 90.1301 227.1 88.1001 228.59 86.6001L233.85 91.5001C230.65 95.1501 225.46 97.3701 219.95 97.3801ZM228.31 76.0501C227.97 73.8201 226.9 71.7601 225.12 70.4401C223.19 69.0101 221.31 68.7401 219.27 68.7401C216.44 68.7401 213.87 70.0801 212.09 72.1501C210.67 73.7901 210.03 76.0401 210.03 76.0401H228.31V76.0501ZM161.04 75.8001C157.7 75.0101 155.34 74.1601 155.3 72.1901C155.25 69.5501 157.57 68.7501 161.59 68.7501C163.25 68.7501 168.52 68.7401 168.52 68.7401V62.3501L161.66 62.3601C155.63 62.3601 148.05 63.6601 148.05 72.6601C148.12 76.7001 150.87 79.8301 155.99 81.4401C157.17 81.8101 158.37 82.0901 159.53 82.3701C163.09 83.2201 166.16 84.0801 166.2 86.7301C166.24 89.1301 163.04 90.5701 160.36 90.6201C155.64 90.6201 152.52 87.9001 151.54 86.9101L146.53 91.5801C146.53 91.5801 150.91 97.3601 160.66 97.3601C167.05 97.3601 173.58 93.2201 173.47 86.4601C173.35 79.7701 167.12 77.2501 161.04 75.8001ZM366.3 61.9801C363.58 61.9801 360.4 62.4401 357.62 64.4701V62.3601H349.94V97.0001H357.62V76.0801C357.62 72.9901 360.1 69.2901 364.97 69.2901C369.24 69.2901 372.12 72.1901 372.12 76.5101V97.0001H379.8V76.0101C379.8 67.4301 374.3 61.9801 366.3 61.9801ZM284.46 61.9801C281.74 61.9801 278.56 62.4401 275.78 64.4701V62.3601H268.1V97.0001H275.78V76.0801C275.78 72.9901 278.26 69.2901 283.13 69.2901C287.4 69.2901 290.28 72.1901 290.28 76.5101V97.0001H297.96V76.0101C297.96 67.4301 292.46 61.9801 284.46 61.9801ZM457.77 61.9801C455.05 61.9801 451.87 62.4401 449.09 64.4701V62.3601H441.41V97.0001H449.09V76.0801C449.09 72.9901 451.57 69.2901 456.44 69.2901C460.71 69.2901 463.59 72.1901 463.59 76.5101V97.0001H471.27V76.0101C471.27 67.4301 465.78 61.9801 457.77 61.9801Z" fill="#FFDD00"/>
<path d="M559.16 50.9199L546.62 96.9999H537.52L528.02 66.4499L518.52 96.9999H509.48L496.82 50.9199H506.68L514.43 80.0799L523.49 50.9199H532.61L541.83 80.2999L549.41 50.9199H559.16ZM588.13 50.9199V79.2999V79.3699C588.13 79.4099 588.33 83.2699 585.84 85.9199C584.22 87.6399 581.79 88.5099 578.61 88.5099C575.43 88.5099 573 87.6399 571.38 85.9199C568.89 83.2699 569.09 79.4099 569.09 79.3699V50.9199H565L559.16 72.3799V79.0499C559.16 84.7299 561 89.5399 564.48 92.9699C567.96 96.3899 572.84 98.1999 578.61 98.1999C584.37 98.1999 589.26 96.3899 592.74 92.9699C596.22 89.5499 598.06 84.7299 598.06 79.0499V50.9199H588.13Z" fill="#FFE500"/>
<path d="M491.62 96.9999L478.96 50.9199H482.19L494.86 96.9999H491.62ZM503.79 96.9999L491.13 50.9199H487.9L500.55 96.9999H503.79Z" fill="white"/>
<path d="M559.16 50.9199L546.62 96.9999H537.52L528.02 66.4499L518.52 96.9999H509.48L496.82 50.9199H506.68L514.43 80.0799L523.49 50.9199H532.61L541.83 80.2999L549.41 50.9199H559.16ZM588.13 50.9199V79.2999V79.3699C588.13 79.4099 588.33 83.2699 585.84 85.9199C584.22 87.6399 581.79 88.5099 578.61 88.5099C575.43 88.5099 573 87.6399 571.38 85.9199C568.89 83.2699 569.09 79.4099 569.09 79.3699V50.9199H565L559.16 72.3799V79.0499C559.16 84.7299 561 89.5399 564.48 92.9699C567.96 96.3899 572.84 98.1999 578.61 98.1999C584.37 98.1999 589.26 96.3899 592.74 92.9699C596.22 89.5499 598.06 84.7299 598.06 79.0499V50.9199H588.13Z" fill="#FFE500"/>
<path d="M491.62 96.9999L478.96 50.9199H482.19L494.86 96.9999H491.62ZM503.79 96.9999L491.13 50.9199H487.9L500.55 96.9999H503.79Z" fill="white"/>
</g>
<defs>
<clipPath id="clip0_1912:38376">
<rect width="644.14" height="143.07" fill="white"/>
</clipPath>
</defs>
</svg>
