<svg width="17" height="20" viewBox="0 0 17 20" fill="none" xmlns="http://www.w3.org/2000/svg">
<path d="M6.5 0H9.49963C8.87194 0.835661 8.5 1.87439 8.5 3C8.5 3.255 8.51909 3.50554 8.55591 3.75027L8.5 3.75C5.5 3.75 4.5 6.02 4.5 8.5V15H12.5V8.5C12.5 8.29679 12.4933 8.09499 12.4793 7.89574C12.8088 7.96408 13.1502 8 13.5 8C13.8373 8 14.1667 7.96661 14.4853 7.90295C14.4951 8.09956 14.5 8.2987 14.5 8.5V14L16.5 15V17H0.5V15L2.5 14V8.5C2.5 5.42 3.64 2.86 6.5 2.18V0Z" fill="white"/>
<path d="M8.5 20C9.6 20 10.5 19.1 10.5 18H6.5C6.5 19.1 7.4 20 8.5 20Z" fill="white"/>
</svg>
