<svg width="20" height="21" viewBox="0 0 20 21" fill="none" xmlns="http://www.w3.org/2000/svg">
<path d="M-3.93402e-07 11.2363L4.37114e-08 17.2363C7.84903e-08 18.032 0.316071 18.795 0.87868 19.3576C1.44129 19.9203 2.20435 20.2363 3 20.2363L17 20.2363C17.7956 20.2363 18.5587 19.9203 19.1213 19.3576C19.6839 18.795 20 18.032 20 17.2363L20 11.2363C20 10.4407 19.6839 9.67762 19.1213 9.11501C18.5587 8.5524 17.7956 8.23633 17 8.23633L14 8.23633C13.7348 8.23633 13.4804 8.34168 13.2929 8.52922C13.1054 8.71676 13 8.97111 13 9.23633C13 9.50154 13.1054 9.7559 13.2929 9.94344C13.4804 10.131 13.7348 10.2363 14 10.2363L17 10.2363C17.2652 10.2363 17.5196 10.3417 17.7071 10.5292C17.8946 10.7168 18 10.9711 18 11.2363L18 17.2363C18 17.5015 17.8946 17.7559 17.7071 17.9434C17.5196 18.131 17.2652 18.2363 17 18.2363L3 18.2363C2.73478 18.2363 2.48043 18.131 2.29289 17.9434C2.10536 17.7559 2 17.5015 2 17.2363L2 11.2363C2 10.9711 2.10536 10.7168 2.29289 10.5292C2.48043 10.3417 2.73478 10.2363 3 10.2363L6 10.2363C6.26522 10.2363 6.51957 10.131 6.70711 9.94344C6.89464 9.7559 7 9.50154 7 9.23633C7 8.97111 6.89464 8.71676 6.70711 8.52922C6.51957 8.34168 6.26522 8.23633 6 8.23633L3 8.23633C2.20435 8.23633 1.44129 8.5524 0.878679 9.11501C0.31607 9.67762 -4.28181e-07 10.4407 -3.93402e-07 11.2363Z" fill="white"/>
<path d="M10.0018 12.2313C10.267 12.2313 10.5213 12.126 10.7089 11.9384C10.8964 11.7509 11.0018 11.4966 11.0018 11.2313L11.0018 3.64134L13.2918 5.94134C13.385 6.03458 13.4957 6.10854 13.6175 6.159C13.7393 6.20946 13.8699 6.23543 14.0018 6.23543C14.1336 6.23543 14.2642 6.20946 14.386 6.159C14.5078 6.10854 14.6185 6.03458 14.7118 5.94134C14.805 5.8481 14.879 5.73741 14.9294 5.61559C14.9799 5.49377 15.0059 5.3632 15.0059 5.23134C15.0059 5.09948 14.9799 4.96891 14.9294 4.84709C14.879 4.72527 14.805 4.61458 14.7118 4.52134L10.7118 0.521341C10.6167 0.430301 10.5045 0.358936 10.3818 0.311341C10.1383 0.211323 9.86523 0.211323 9.62177 0.311341C9.49902 0.358936 9.38687 0.430301 9.29177 0.521341L5.29177 4.52134C5.19804 4.6143 5.12364 4.72491 5.07288 4.84676C5.02211 4.96862 4.99597 5.09933 4.99597 5.23134C4.99597 5.36335 5.02211 5.49406 5.07288 5.61592C5.12364 5.73778 5.19804 5.84838 5.29177 5.94134C5.38473 6.03507 5.49533 6.10946 5.61719 6.16023C5.73905 6.211 5.86976 6.23714 6.00177 6.23714C6.13378 6.23714 6.26449 6.211 6.38634 6.16023C6.5082 6.10946 6.6188 6.03507 6.71177 5.94134L9.00177 3.64134L9.00177 11.2313C9.00177 11.4966 9.10712 11.7509 9.29466 11.9384C9.4822 12.126 9.73655 12.2313 10.0018 12.2313Z" fill="white"/>
</svg>
