<svg width="24" height="20" viewBox="0 0 24 20" fill="none" xmlns="http://www.w3.org/2000/svg">
<path d="M23.7491 6.82236L17.749 0.822246C17.4142 0.487553 16.8715 0.487654 16.5368 0.822447C16.3761 0.983164 16.2859 1.20104 16.2858 1.4283V3.99977H10.2857C9.81229 3.99977 9.42853 4.38353 9.42853 4.85694C9.42853 5.33035 9.81229 5.71412 10.2857 5.71412H17.143C17.6164 5.71412 18.0002 5.33035 18.0002 4.85694V3.49743L21.9311 7.42836L18.0002 11.3593V9.99983C18.0002 9.52642 17.6164 9.14266 17.143 9.14266H7.71423V6.57119C7.71413 6.09778 7.33027 5.71412 6.85691 5.71422C6.62969 5.71427 6.41177 5.80452 6.25105 5.96519L0.250982 11.9653C-0.0836608 12.3 -0.0836608 12.8426 0.250982 13.1773L6.2511 19.1774C6.41182 19.3382 6.62979 19.4285 6.85711 19.4286C6.96976 19.4289 7.08141 19.4068 7.18537 19.3634C7.5056 19.2307 7.71433 18.9181 7.71423 18.5714V15.9999H13.7144C14.1878 15.9999 14.5715 15.6162 14.5715 15.1428C14.5715 14.6694 14.1878 14.2856 13.7144 14.2856H6.85711C6.3837 14.2856 5.99993 14.6694 5.99993 15.1428V16.5022L2.06899 12.5713L5.99993 8.64037V9.99983C5.99993 10.4732 6.3837 10.857 6.85711 10.857H16.2858V13.4285C16.2859 13.9019 16.6698 14.2855 17.1432 14.2854C17.3704 14.2854 17.5883 14.1951 17.749 14.0345L23.7491 8.03437C24.0837 7.69962 24.0837 7.15705 23.7491 6.82236Z" fill="#FFB701"/>
</svg>
